<svg width="16" height="16" viewBox="0 0 16 16" fill="none" xmlns="http://www.w3.org/2000/svg">
<path d="M10.1473 13.7961C10.172 13.8576 10.215 13.9101 10.2703 13.9465C10.3257 13.983 10.391 14.0016 10.4572 13.9999C10.5235 13.9982 10.5877 13.9763 10.6412 13.937C10.6946 13.8978 10.7348 13.8432 10.7563 13.7805L14.9808 1.43187C15.0016 1.37429 15.0056 1.31197 14.9923 1.2522C14.9789 1.19244 14.9489 1.13771 14.9056 1.09442C14.8623 1.05112 14.8076 1.02105 14.7478 1.00773C14.688 0.994402 14.6257 0.998371 14.5681 1.01917L2.21955 5.24369C2.15683 5.26519 2.10219 5.30537 2.06296 5.35883C2.02374 5.41229 2.0018 5.47647 2.00011 5.54275C1.99841 5.60904 2.01703 5.67425 2.05347 5.72965C2.0899 5.78505 2.14241 5.82797 2.20395 5.85266L7.35786 7.91943C7.52078 7.98466 7.66881 8.08221 7.79302 8.20619C7.91723 8.33018 8.01505 8.47803 8.08057 8.64084L10.1473 13.7961Z" stroke="white" stroke-width="1.33333" stroke-linecap="round" stroke-linejoin="round"/>
<path d="M14 1L7 8" stroke="white" stroke-width="1.33333" stroke-linecap="round" stroke-linejoin="round"/>
</svg>
