<svg width="20" height="20" viewBox="0 0 20 20" fill="none" xmlns="http://www.w3.org/2000/svg">
<path d="M10 11C10.5523 11 11 10.5523 11 10C11 9.44772 10.5523 9 10 9C9.44772 9 9 9.44772 9 10C9 10.5523 9.44772 11 10 11Z" stroke="white" stroke-opacity="0.9" stroke-width="1.66667" stroke-linecap="round" stroke-linejoin="round"/>
<path d="M10 5C10.5523 5 11 4.55228 11 4C11 3.44772 10.5523 3 10 3C9.44772 3 9 3.44772 9 4C9 4.55228 9.44772 5 10 5Z" stroke="white" stroke-opacity="0.9" stroke-width="1.66667" stroke-linecap="round" stroke-linejoin="round"/>
<path d="M10 17C10.5523 17 11 16.5523 11 16C11 15.4477 10.5523 15 10 15C9.44772 15 9 15.4477 9 16C9 16.5523 9.44772 17 10 17Z" stroke="white" stroke-opacity="0.9" stroke-width="1.66667" stroke-linecap="round" stroke-linejoin="round"/>
</svg>
