<svg width="16" height="16" viewBox="0 0 16 16" fill="none" xmlns="http://www.w3.org/2000/svg">
<path d="M3.33325 3.33334C3.33318 3.09874 3.39502 2.86827 3.51251 2.6652C3.63 2.46214 3.79899 2.29367 4.00242 2.17681C4.20585 2.05994 4.43651 1.99883 4.67111 1.99962C4.90572 2.00042 5.13596 2.0631 5.33859 2.18134L13.3366 6.84668C13.5384 6.9638 13.706 7.13184 13.8225 7.33401C13.9391 7.53619 14.0005 7.76541 14.0007 7.99877C14.0009 8.23213 13.9399 8.46146 13.8237 8.66383C13.7075 8.86621 13.5402 9.03454 13.3386 9.15201L5.33859 13.8187C5.13596 13.9369 4.90572 13.9996 4.67111 14.0004C4.43651 14.0012 4.20585 13.9401 4.00242 13.8232C3.79899 13.7063 3.63 13.5379 3.51251 13.3348C3.39502 13.1318 3.33318 12.9013 3.33325 12.6667V3.33334Z" stroke="black" stroke-width="1.33333" stroke-linecap="round" stroke-linejoin="round"/>
</svg>
